<svg xmlns="http://www.w3.org/2000/svg" viewBox="0 0 2725.4 3154.7"><defs><style>.cls-1{fill:#653118;}.cls-2,.cls-7{fill:#554a40;}.cls-3,.cls-6{fill:#edc074;}.cls-4{fill:#fff;}.cls-5{fill:#564313;}.cls-6{font-size:490.9px;font-family:Montserrat-ExtraBold, Montserrat;font-weight:800;}.cls-7{font-size:177.17px;font-family:Montserrat-SemiBold, Montserrat;font-weight:600;}.cls-8{letter-spacing:-0.01em;}.cls-9{letter-spacing:0em;}</style></defs><g id="Lag_8" data-name="Lag 8"><path class="cls-1" d="M538.42,1933.74S399.9,2142,774.69,2061.49,1405,2047.6,1405,2047.6s116,286.05,398.23,274.94,493.24-24.68,601.55-194.24,61.1-350.08,61.1-350.08-73.09-391.58-997.44-125S863.25,1492.17,538.42,1933.74Z"/></g><g id="Lag_7" data-name="Lag 7"><path class="cls-2" d="M908.25,1701.44s-149.85-141.45-132.1-340,14-231.76,14-231.76,149.3,120.7,177.51,213.85c0,0-31.35,164.21-20.64,261,0,0-61.13-219.33-92.34-296.39C854.65,1308.14,911.18,1625.82,908.25,1701.44Z"/><path class="cls-1" d="M682,1462.52s-140.52-132.65-123.88-318.81,13.11-217.33,13.11-217.33,140,113.19,166.45,200.54c0,0-29.4,154-19.35,244.72,0,0-57.33-205.68-86.6-277.94C631.76,1093.7,684.78,1391.6,682,1462.52Z"/><path class="cls-1" d="M491.27,1269.78s-119-112.32-104.89-269.95,11.09-184,11.09-184S516,911.64,538.42,985.6c0,0-24.89,130.4-16.39,207.23,0,0-48.54-174.16-73.32-235.35C448.71,957.48,493.6,1209.73,491.27,1269.78Z"/><path class="cls-1" d="M885.89,1700s-142.44-148.9-340.84-129.84-231.66,15.52-231.66,15.52,121.69,148.49,215,176.07c0,0,164-32.43,260.83-22.36,0,0-219.74-59.68-297-90.37C492.24,1649,810.29,1703.45,885.89,1700Z"/><path class="cls-1" d="M673.45,1480.4s-138-135.3-323.34-111.5-216.66,21.46-216.66,21.46S251.94,1525.91,340.24,1549c0,0,152.75-35.31,243.8-28.76,0,0-207.73-49.36-281.07-75.83C303,1444.38,602.7,1485.88,673.45,1480.4Z"/><path class="cls-1" d="M478.48,1274.4s-129.74-99.7-283.15-60.82-180,40.09-180,40.09,113.4,101.88,190,112.28c0,0,124.8-45.22,202-49,0,0-179.65-20.35-244-35.13C163.38,1281.83,419.56,1286.21,478.48,1274.4Z"/><path class="cls-1" d="M203.61,1183.81S34.93,1046.34,0,909.63c0,0,101.66-38.07,332.91,78.79,0,0,34.16,120.8,32,148L160.06,1004.61,339.94,1168S231.19,1169.73,203.61,1183.81Z"/><path class="cls-1" d="M1880.72,1567.34s129.77-160.07,329.06-157.32,232.16-3.51,232.16-3.51-109.12,158-199.88,193.09c0,0-166.11-18.89-261.79-.93,0,0,214.11-77.47,288.61-114.39C2268.88,1484.28,1956.35,1564.57,1880.72,1567.34Z"/><path class="cls-1" d="M2101.94,1323.77s121.69-150.1,308.58-147.52,217.7-3.29,217.7-3.29S2525.89,1321.08,2440.78,1354c0,0-155.77-17.72-245.49-.87,0,0,200.78-72.65,270.64-107.27C2465.93,1245.89,2172.86,1321.18,2101.94,1323.77Z"/><path class="cls-1" d="M2279.77,1119.05s103.05-127.11,261.29-124.92,184.34-2.79,184.34-2.79-86.64,125.43-158.71,153.33c0,0-131.9-15-207.87-.74,0,0,170-61.52,229.16-90.83C2588,1053.1,2339.82,1116.85,2279.77,1119.05Z"/><path class="cls-1" d="M1880.46,1544.93s137.76-153.25,103.82-349.65-32.91-229.83-32.91-229.83S1812.46,1098,1792,1193.12c0,0,44.69,161.09,41.94,258.4,0,0,43-223.6,67.75-303C1901.67,1148.56,1871.35,1469.8,1880.46,1544.93Z"/><path class="cls-1" d="M2083.46,1316.57s124.53-147.76,86.85-330.82-37.72-214.44-37.72-214.44S2006.36,899.68,1990,989.46c0,0,46.7,149.66,47,241,0,0,33.58-210.87,54.45-286C2091.49,944.42,2072.67,1246.42,2083.46,1316.57Z"/><path class="cls-1" d="M2274.2,1106.64s89.65-136.88,39.34-286.93S2260,643.29,2260,643.29,2167,764,2162.35,841.18c0,0,54.49,121.05,64.06,197.76,0,0,6.77-180.68,16.67-246C2243.08,793,2258,1048.78,2274.2,1106.64Z"/><path class="cls-1" d="M2343.84,825.73s124.39-178.55,258.08-223.67c0,0,45.61,98.5-53.51,337.9,0,0-117.88,43.15-145.2,43l116.05-214.17L2369.9,960.48S2360,852.17,2343.84,825.73Z"/></g><g id="Lag_6" data-name="Lag 6"><path class="cls-3" d="M1331,1295s348.61,617.2,405.37,762.8,204.68,69.57,204.68,69.57S2188.8,2034,2291,1916s38.57-158.24,38.57-158.24S2274,1688.56,2314,1637.35s74.35-195.64,39.65-253.88-151.24-259.25-206.46-314.75-120.44-87.45-197.85-50.51-101.23,56.24-144.42-34.3c0,0,9.47-67.92-71.5-88.08s-101.54,42.51-101.54,42.51-53-57.84-101.17,17.81c0,0-64.51-51.42-120,21.07,0,0-141.67-18-137.44,120.3,0,0-121.39,23.51-61,127.85,0,0-53.59,120.6,81.46,124.46,0,0,28,101,108.36,72.23"/><path class="cls-4" d="M1473.37,1367.49s18-35.63-.06-64.51c0,0,77-16.81,76.78-85.89l109.2-68.3s33.78,17.09,55.36.14,32.95-41,27.48-60.55c0,0,57.84-53,58.9-67.19,0,0,34.93,110.4,115.92,49.13s153.1-48.7,186.51-6.89c0,0-58.63-65-173.5,26,0,0-70.56,26-18.43,107.24s261.7,391.75,261.7,391.75,27.77,34.61,61.28-22,45.36-79.24,45.36-79.24-70.3,151.17-20.32,217.77,94.66,101.29,35.67,163.91S2081.54,2053,1900.33,2113.34c0,0-94.06,29.08-122.43-33s-260-541.39-347.49-669.84c0,0,26.26-12.48,28.88-18,0,0,266.18,490,290.08,556.74,0,0,14.53,36.27,59.18,28,0,0-238.31-450.83-261.12-488.76l44.94-16.09,276.3,492.53,39.1-10.93-274.65-500.81,305,486.87s174.3-62.44,268.15-203.6c0,0,29.45-33.6-23.92-88.23s-342.09-508.92-342.09-508.92l-17.68,27.85s291.56,479.39,317.66,500.77c0,0-295.14-352.13-345-474.09l-41.71,38s9.37,30.44-26.93,23.47l-47.45,26.22s20.46,35.69-11.63,53.33-46-12.71-46-12.71-13-27.62,6.87-40.87c0,0-29.67,3-26.52,41.77C1601.86,1323,1549.75,1366.25,1473.37,1367.49Z"/><circle class="cls-4" cx="1758.78" cy="1405.06" r="12.29"/><circle class="cls-4" cx="1831.88" cy="1441.87" r="12.29"/><circle class="cls-4" cx="1790.91" cy="1327.49" r="12.29"/><circle class="cls-4" cx="1729.1" cy="1305.07" r="12.29"/><circle class="cls-4" cx="1738.68" cy="1241.72" r="20.25"/><circle class="cls-4" cx="1652.24" cy="1304.95" r="37.61"/><path class="cls-4" d="M2056.94,1100.83s148.81,149.5,219.31,316.29C2276.25,1417.12,2199,1171.33,2056.94,1100.83Z"/><path class="cls-4" d="M1981,1133.4s49.39-42.27,87.19,11.79,103.65,134.94,142.73,205.45,55.36,103.08,44.39,123.91-38.17,73.59-38.17,73.59-26,26.2-48.16-5.79S1952.36,1212,1952.36,1212,1921.63,1177.73,1981,1133.4Z"/><path class="cls-4" d="M1251.25,1218.13s-54-31.74-14-71.4,86.68,7.17,86.68,7.17-12.28-40.74-24.11-48c0,0-20.59-92.87,105.78-103.57l.34,46s29.2-137.22,141.95-50.85c0,0,3.83-44,34.62-48.12s38.46,1.2,55.19,28.62c0,0,22.87-52,78.1-52.17s69,60.57,69,60.57-26-43.69-66.45-40.73c0,0,48.11,18.49,48.75,78.18,0,0-90.83,97.07-243.77,178.36,0,0-8.6,91.8-89,69.91,0,0,53.83,95.57-29.09,121.43s-89.65-60.46-89.65-60.46-6.31-36.91,6.53-46.12c0,0-51.65,39.42-70-22.18,0,0-6.9,52,35.13,60,0,0-51.65,7-59.52-53.58C1227.61,1271.15,1222.72,1241.41,1251.25,1218.13Z"/><path class="cls-5" d="M1336.69,1331.18s74.78,60.79,80.45-39.19c0,0,39.58,52.65-7.52,78.74S1337.57,1340.08,1336.69,1331.18Z"/><path class="cls-5" d="M1434.39,1250.09s60.12-12.32,63.49-76.9C1497.88,1173.19,1527.81,1269.63,1434.39,1250.09Z"/><path class="cls-5" d="M1394,1175.84s-58.56-41.24,15.91-71.38c0,0,6.68-39.26,35.72-45.06s48.61.63,58.37,27.87c0,0-19.55-25.64-56.82-4.23s-7.54,54.56-7.54,54.56-23-24-46.56-2.91S1394,1175.84,1394,1175.84Z"/></g><g id="Lag_5" data-name="Lag 5"><path class="cls-3" d="M1589.6,1256.31s-348.61,617.2-405.38,762.8-204.68,69.57-204.68,69.57-247.72-93.35-349.86-211.37-38.58-158.24-38.58-158.24,55.53-69.22,15.49-120.43S532.25,1403,566.94,1344.76,718.19,1085.51,773.41,1030s120.43-87.45,197.85-50.51,101.23,56.24,144.42-34.3c0,0-9.48-67.92,71.49-88.08s101.54,42.51,101.54,42.51,53-57.84,101.17,17.81c0,0,64.51-51.42,120,21.07,0,0,141.67-18,137.45,120.3,0,0,121.39,23.51,61,127.85,0,0,53.59,120.6-81.46,124.46,0,0-28.06,101-108.36,72.23"/><path class="cls-4" d="M1447.25,1328.78s-18-35.63.06-64.51c0,0-76.94-16.81-76.78-85.89l-109.2-68.3s-33.78,17.09-55.36.14-32.94-41-27.48-60.55c0,0-57.84-53-58.89-67.19,0,0-34.94,110.4-115.93,49.13s-153.09-48.7-186.51-6.89c0,0,58.64-65,173.5,26,0,0,70.57,26,18.44,107.24s-261.71,391.75-261.71,391.75-27.76,34.61-61.27-22-45.37-79.24-45.37-79.24,70.3,151.17,20.33,217.77-94.67,101.29-35.67,163.91,213.68,184.09,394.88,244.39c0,0,94.06,29.08,122.43-33s260-541.39,347.49-669.84c0,0-26.25-12.48-28.88-18,0,0-266.17,490-290.07,556.74,0,0-14.54,36.27-59.19,28,0,0,238.32-450.83,261.12-488.76l-44.93-16.09L1052,1926.18l-39.11-10.93,274.66-500.81-305,486.87s-174.29-62.44-268.15-203.6c0,0-29.44-33.6,23.93-88.23s342.08-508.92,342.08-508.92l17.68,27.85S806.49,1607.8,780.4,1629.18c0,0,295.13-352.13,345-474.09l41.7,38s-9.37,30.44,26.93,23.47l47.46,26.22s-20.47,35.69,11.62,53.33,46-12.71,46-12.71,13-27.61-6.87-40.87c0,0,29.68,3,26.53,41.77C1318.77,1284.29,1370.88,1327.54,1447.25,1328.78Z"/><circle class="cls-4" cx="1161.85" cy="1366.35" r="12.29"/><circle class="cls-4" cx="1088.74" cy="1403.16" r="12.29"/><circle class="cls-4" cx="1129.72" cy="1288.78" r="12.29"/><circle class="cls-4" cx="1191.52" cy="1266.36" r="12.29"/><circle class="cls-4" cx="1181.95" cy="1203.02" r="20.25"/><circle class="cls-4" cx="1268.38" cy="1266.24" r="37.61"/><path class="cls-4" d="M863.68,1062.12s-148.81,149.5-219.31,316.29C644.37,1378.41,721.66,1132.62,863.68,1062.12Z"/><path class="cls-4" d="M939.59,1094.69s-49.38-42.27-87.19,11.79-103.65,134.94-142.73,205.45S654.31,1415,665.28,1435.84s38.17,73.59,38.17,73.59,25.95,26.2,48.17-5.79,216.65-330.31,216.65-330.31S999,1139,939.59,1094.69Z"/><path class="cls-4" d="M1669.37,1179.42s54-31.74,14.06-71.4-86.69,7.17-86.69,7.17,12.29-40.73,24.11-48c0,0,20.6-92.87-105.78-103.57l-.33,46s-29.21-137.22-142-50.85c0,0-3.82-44-34.61-48.12s-38.46,1.2-55.2,28.62c0,0-22.86-52-78.1-52.17s-68.94,60.57-68.94,60.57,26-43.69,66.44-40.73c0,0-48.11,18.49-48.75,78.18,0,0,90.83,97.07,243.78,178.36,0,0,8.59,91.8,89,69.91,0,0-53.82,95.57,29.1,121.43s89.64-60.46,89.64-60.46,6.31-36.91-6.52-46.12c0,0,51.64,39.42,70-22.18,0,0,6.9,52-35.14,60,0,0,51.66,7,59.52-53.57C1693,1232.45,1697.91,1202.7,1669.37,1179.42Z"/><path class="cls-3" d="M1583.94,1292.47s-74.78,60.79-80.45-39.19c0,0-39.59,52.65,7.51,78.74S1583.05,1301.37,1583.94,1292.47Z"/><path class="cls-3" d="M1486.23,1211.38s-60.12-12.32-63.48-76.9C1422.75,1134.48,1392.81,1230.92,1486.23,1211.38Z"/><path class="cls-3" d="M1526.66,1137.13s58.56-41.24-15.92-71.38c0,0-6.67-39.26-35.71-45.06s-48.62.63-58.38,27.87c0,0,19.56-25.64,56.82-4.22s7.54,54.55,7.54,54.55,23-24,46.56-2.91S1526.66,1137.13,1526.66,1137.13Z"/></g><g id="Lag_9" data-name="Lag 9"><text class="cls-6" transform="translate(481.71 2507.33)">KM</text><text class="cls-7" transform="translate(1336.59 2507.33)"><tspan class="cls-8">F</tspan><tspan x="110.2" y="0">estudlejni</tspan><tspan class="cls-9" x="1015.36" y="0">n</tspan><tspan x="1137.6" y="0">g</tspan></text></g></svg>